<svg xmlns="http://www.w3.org/2000/svg" viewBox="0 0 800 400" width="800" height="400" font-family="system-ui,-apple-system,Segoe UI,Roboto,sans-serif" role="img" aria-label="Ports and SSH"><title>Ports and SSH</title><defs><marker id="a-slate" viewBox="0 0 10 10" refX="9" refY="5" markerWidth="7" markerHeight="7" orient="auto-start-reverse"><path d="M0 0L10 5L0 10z" fill="#64748b"/></marker><marker id="a-indigo" viewBox="0 0 10 10" refX="9" refY="5" markerWidth="7" markerHeight="7" orient="auto-start-reverse"><path d="M0 0L10 5L0 10z" fill="#6366f1"/></marker><marker id="a-green" viewBox="0 0 10 10" refX="9" refY="5" markerWidth="7" markerHeight="7" orient="auto-start-reverse"><path d="M0 0L10 5L0 10z" fill="#10b981"/></marker><marker id="a-amber" viewBox="0 0 10 10" refX="9" refY="5" markerWidth="7" markerHeight="7" orient="auto-start-reverse"><path d="M0 0L10 5L0 10z" fill="#f59e0b"/></marker><marker id="a-red" viewBox="0 0 10 10" refX="9" refY="5" markerWidth="7" markerHeight="7" orient="auto-start-reverse"><path d="M0 0L10 5L0 10z" fill="#ef4444"/></marker><marker id="a-sky" viewBox="0 0 10 10" refX="9" refY="5" markerWidth="7" markerHeight="7" orient="auto-start-reverse"><path d="M0 0L10 5L0 10z" fill="#0ea5e9"/></marker><marker id="a-violet" viewBox="0 0 10 10" refX="9" refY="5" markerWidth="7" markerHeight="7" orient="auto-start-reverse"><path d="M0 0L10 5L0 10z" fill="#8b5cf6"/></marker><marker id="a-pink" viewBox="0 0 10 10" refX="9" refY="5" markerWidth="7" markerHeight="7" orient="auto-start-reverse"><path d="M0 0L10 5L0 10z" fill="#ec4899"/></marker><marker id="a-teal" viewBox="0 0 10 10" refX="9" refY="5" markerWidth="7" markerHeight="7" orient="auto-start-reverse"><path d="M0 0L10 5L0 10z" fill="#14b8a6"/></marker></defs><rect x="1" y="1" width="798" height="398" rx="14" fill="#eef2f7" stroke="#94a3b8" stroke-width="2"/><text x="400" y="32" font-size="19" text-anchor="middle" fill="#1e293b" font-weight="700">Street doors, an inside door and a staff entrance</text><rect x="30" y="120" width="120" height="80" rx="6" fill="#e2e8f0" stroke="#64748b" stroke-width="1.5"/><text x="90" y="164.6" font-size="13" text-anchor="middle" fill="#1e293b" font-weight="700">internet</text><rect x="200" y="95" width="160" height="130" rx="6" fill="#e0f2fe" stroke="#0ea5e9" stroke-width="1.5"/><text x="280" y="141.7" font-size="12" text-anchor="middle" fill="#1e293b" font-weight="700">ALB</text><text x="280" y="156.7" font-size="12" text-anchor="middle" fill="#1e293b" font-weight="700">443 + 80</text><text x="280" y="171.7" font-size="12" text-anchor="middle" fill="#1e293b" font-weight="700">from anywhere</text><text x="280" y="186.7" font-size="12" text-anchor="middle" fill="#1e293b" font-weight="700">ACM certificate</text><rect x="420" y="80" width="350" height="200" rx="6" fill="#e2e8f0" stroke="#64748b" stroke-width="1.5"/><text x="595" y="184.9" font-size="14" text-anchor="middle" fill="#1e293b"></text><text x="595" y="102" font-size="12" text-anchor="middle" fill="#1e293b" font-weight="700">EC2 (app security group)</text><rect x="440" y="120" width="150" height="50" rx="6" fill="#d1fae5" stroke="#10b981" stroke-width="1.5"/><text x="515" y="149.2" font-size="12" text-anchor="middle" fill="#1e293b">:80 only from ALB SG</text><rect x="610" y="120" width="140" height="50" rx="6" fill="#e0e7ff" stroke="#6366f1" stroke-width="1.5"/><text x="680" y="141.7" font-size="12" text-anchor="middle" fill="#1e293b">Node :4000</text><text x="680" y="156.7" font-size="12" text-anchor="middle" fill="#1e293b">never published</text><rect x="440" y="200" width="150" height="50" rx="6" fill="#fef3c7" stroke="#f59e0b" stroke-width="1.5"/><text x="515" y="221.7" font-size="12" text-anchor="middle" fill="#1e293b">:22 from my IP /32</text><text x="515" y="236.7" font-size="12" text-anchor="middle" fill="#1e293b">(or none: SSM)</text><rect x="610" y="200" width="140" height="50" rx="6" fill="#fee2e2" stroke="#ef4444" stroke-width="1.5"/><text x="680" y="221.7" font-size="12" text-anchor="middle" fill="#1e293b">:4000 :27017 from</text><text x="680" y="236.7" font-size="12" text-anchor="middle" fill="#1e293b">internet: dropped</text><line x1="150" y1="160" x2="196" y2="160" stroke="#64748b" stroke-width="2" marker-end="url(#a-slate)"/><line x1="360" y1="150" x2="436" y2="145" stroke="#64748b" stroke-width="2" marker-end="url(#a-slate)"/><line x1="590" y1="145" x2="606" y2="145" stroke="#64748b" stroke-width="2" marker-end="url(#a-slate)"/><text x="400" y="368" font-size="12" text-anchor="middle" fill="#6366f1" font-weight="700">SSH: keys only, no root, AllowUsers · Session Manager needs no inbound port</text></svg>