<svg xmlns="http://www.w3.org/2000/svg" viewBox="0 0 800 400" width="800" height="400" font-family="system-ui,-apple-system,Segoe UI,Roboto,sans-serif" role="img" aria-label="Without a transition each keystroke blocks for 44 ms; with startTransition the input updates in 0.3 ms and stale list renders are abandoned: 10 commits become 1"><title>Without a transition each keystroke blocks for 44 ms; with startTransition the input updates in 0.3 ms and stale list renders are abandoned: 10 commits become 1</title><defs><marker id="a-slate" viewBox="0 0 10 10" refX="9" refY="5" markerWidth="7" markerHeight="7" orient="auto-start-reverse"><path d="M0 0L10 5L0 10z" fill="#64748b"/></marker><marker id="a-indigo" viewBox="0 0 10 10" refX="9" refY="5" markerWidth="7" markerHeight="7" orient="auto-start-reverse"><path d="M0 0L10 5L0 10z" fill="#6366f1"/></marker><marker id="a-green" viewBox="0 0 10 10" refX="9" refY="5" markerWidth="7" markerHeight="7" orient="auto-start-reverse"><path d="M0 0L10 5L0 10z" fill="#10b981"/></marker><marker id="a-amber" viewBox="0 0 10 10" refX="9" refY="5" markerWidth="7" markerHeight="7" orient="auto-start-reverse"><path d="M0 0L10 5L0 10z" fill="#f59e0b"/></marker><marker id="a-red" viewBox="0 0 10 10" refX="9" refY="5" markerWidth="7" markerHeight="7" orient="auto-start-reverse"><path d="M0 0L10 5L0 10z" fill="#ef4444"/></marker><marker id="a-sky" viewBox="0 0 10 10" refX="9" refY="5" markerWidth="7" markerHeight="7" orient="auto-start-reverse"><path d="M0 0L10 5L0 10z" fill="#0ea5e9"/></marker><marker id="a-violet" viewBox="0 0 10 10" refX="9" refY="5" markerWidth="7" markerHeight="7" orient="auto-start-reverse"><path d="M0 0L10 5L0 10z" fill="#8b5cf6"/></marker><marker id="a-pink" viewBox="0 0 10 10" refX="9" refY="5" markerWidth="7" markerHeight="7" orient="auto-start-reverse"><path d="M0 0L10 5L0 10z" fill="#ec4899"/></marker><marker id="a-teal" viewBox="0 0 10 10" refX="9" refY="5" markerWidth="7" markerHeight="7" orient="auto-start-reverse"><path d="M0 0L10 5L0 10z" fill="#14b8a6"/></marker></defs><rect x="1" y="1" width="798" height="398" rx="14" fill="#eef2f7" stroke="#94a3b8" stroke-width="2"/><text x="400" y="32" font-size="19" text-anchor="middle" fill="#1e293b" font-weight="700">useTransition: keep typing responsive</text><text x="205" y="70" font-size="14" text-anchor="middle" fill="#ef4444" font-weight="700">Without a transition</text><text x="595" y="70" font-size="13" text-anchor="middle" fill="#10b981" font-weight="700" font-family="ui-monospace,Menlo,Consolas,monospace">startTransition(() =&gt; setQuery(v))</text><rect x="40" y="90" width="46" height="34" rx="6" fill="#fef3c7" stroke="#f59e0b" stroke-width="1.5"/><text x="63" y="111.2" font-size="12" text-anchor="middle" fill="#1e293b">key</text><rect x="92" y="90" width="270" height="34" rx="6" fill="#fee2e2" stroke="#ef4444" stroke-width="1.5"/><text x="227" y="111.2" font-size="12" text-anchor="middle" fill="#1e293b">input + list render: blocked 44 ms</text><rect x="40" y="136" width="46" height="34" rx="6" fill="#fef3c7" stroke="#f59e0b" stroke-width="1.5"/><text x="63" y="157.2" font-size="12" text-anchor="middle" fill="#1e293b">key</text><rect x="92" y="136" width="270" height="34" rx="6" fill="#fee2e2" stroke="#ef4444" stroke-width="1.5"/><text x="227" y="157.2" font-size="12" text-anchor="middle" fill="#1e293b">input + list render: blocked 44 ms</text><rect x="40" y="182" width="46" height="34" rx="6" fill="#fef3c7" stroke="#f59e0b" stroke-width="1.5"/><text x="63" y="203.2" font-size="12" text-anchor="middle" fill="#1e293b">key</text><rect x="92" y="182" width="270" height="34" rx="6" fill="#fee2e2" stroke="#ef4444" stroke-width="1.5"/><text x="227" y="203.2" font-size="12" text-anchor="middle" fill="#1e293b">input + list render: blocked 44 ms</text><rect x="430" y="90" width="46" height="34" rx="6" fill="#fef3c7" stroke="#f59e0b" stroke-width="1.5"/><text x="453" y="111.2" font-size="12" text-anchor="middle" fill="#1e293b">key</text><rect x="482" y="90" width="70" height="34" rx="6" fill="#d1fae5" stroke="#10b981" stroke-width="1.5"/><text x="517" y="111.2" font-size="12" text-anchor="middle" fill="#1e293b" font-weight="700">input</text><rect x="558" y="90" width="200" height="34" rx="6" fill="#e2e8f0" stroke="#64748b" stroke-width="1.5" stroke-dasharray="5 4"/><text x="658" y="111.2" font-size="12" text-anchor="middle" fill="#1e293b">list render… abandoned</text><rect x="430" y="136" width="46" height="34" rx="6" fill="#fef3c7" stroke="#f59e0b" stroke-width="1.5"/><text x="453" y="157.2" font-size="12" text-anchor="middle" fill="#1e293b">key</text><rect x="482" y="136" width="70" height="34" rx="6" fill="#d1fae5" stroke="#10b981" stroke-width="1.5"/><text x="517" y="157.2" font-size="12" text-anchor="middle" fill="#1e293b" font-weight="700">input</text><rect x="558" y="136" width="200" height="34" rx="6" fill="#e2e8f0" stroke="#64748b" stroke-width="1.5" stroke-dasharray="5 4"/><text x="658" y="157.2" font-size="12" text-anchor="middle" fill="#1e293b">list render… abandoned</text><rect x="430" y="182" width="46" height="34" rx="6" fill="#fef3c7" stroke="#f59e0b" stroke-width="1.5"/><text x="453" y="203.2" font-size="12" text-anchor="middle" fill="#1e293b">key</text><rect x="482" y="182" width="70" height="34" rx="6" fill="#d1fae5" stroke="#10b981" stroke-width="1.5"/><text x="517" y="203.2" font-size="12" text-anchor="middle" fill="#1e293b" font-weight="700">input</text><rect x="558" y="182" width="200" height="34" rx="6" fill="#d1fae5" stroke="#10b981" stroke-width="1.5"/><text x="658" y="203.2" font-size="12" text-anchor="middle" fill="#1e293b">list render → commit</text><text x="400" y="250" font-size="13" text-anchor="middle" fill="#475569" font-weight="700">Measured (React 19.3, list render ≈ 44 ms, real input events):</text><text x="400" y="272" font-size="13" text-anchor="middle" fill="#475569">time until the typed character is on screen: 44 ms → 0.3 ms</text><text x="400" y="294" font-size="13" text-anchor="middle" fill="#475569">10 fast keystrokes: list committed 10 times → 1 time (9 renders abandoned)</text><rect x="150" y="316" width="500" height="48" rx="6" fill="#e0f2fe" stroke="#0ea5e9" stroke-width="1.5"/><text x="400" y="336.6" font-size="12.5" text-anchor="middle" fill="#1e293b">Urgent: typing, clicking, pressing → render now</text><text x="400" y="352.1" font-size="12.5" text-anchor="middle" fill="#1e293b">Transition: results, navigation, filtering → may wait or be interrupted</text></svg>