<svg xmlns="http://www.w3.org/2000/svg" viewBox="0 0 800 400" width="800" height="400" font-family="system-ui,-apple-system,Segoe UI,Roboto,sans-serif" role="img" aria-label="DP table for abcde and ace; the bottom-right value is 3"><title>DP table for abcde and ace; the bottom-right value is 3</title><defs><marker id="a-slate" viewBox="0 0 10 10" refX="9" refY="5" markerWidth="7" markerHeight="7" orient="auto-start-reverse"><path d="M0 0L10 5L0 10z" fill="#64748b"/></marker><marker id="a-indigo" viewBox="0 0 10 10" refX="9" refY="5" markerWidth="7" markerHeight="7" orient="auto-start-reverse"><path d="M0 0L10 5L0 10z" fill="#6366f1"/></marker><marker id="a-green" viewBox="0 0 10 10" refX="9" refY="5" markerWidth="7" markerHeight="7" orient="auto-start-reverse"><path d="M0 0L10 5L0 10z" fill="#10b981"/></marker><marker id="a-amber" viewBox="0 0 10 10" refX="9" refY="5" markerWidth="7" markerHeight="7" orient="auto-start-reverse"><path d="M0 0L10 5L0 10z" fill="#f59e0b"/></marker><marker id="a-red" viewBox="0 0 10 10" refX="9" refY="5" markerWidth="7" markerHeight="7" orient="auto-start-reverse"><path d="M0 0L10 5L0 10z" fill="#ef4444"/></marker><marker id="a-sky" viewBox="0 0 10 10" refX="9" refY="5" markerWidth="7" markerHeight="7" orient="auto-start-reverse"><path d="M0 0L10 5L0 10z" fill="#0ea5e9"/></marker><marker id="a-violet" viewBox="0 0 10 10" refX="9" refY="5" markerWidth="7" markerHeight="7" orient="auto-start-reverse"><path d="M0 0L10 5L0 10z" fill="#8b5cf6"/></marker><marker id="a-pink" viewBox="0 0 10 10" refX="9" refY="5" markerWidth="7" markerHeight="7" orient="auto-start-reverse"><path d="M0 0L10 5L0 10z" fill="#ec4899"/></marker><marker id="a-teal" viewBox="0 0 10 10" refX="9" refY="5" markerWidth="7" markerHeight="7" orient="auto-start-reverse"><path d="M0 0L10 5L0 10z" fill="#14b8a6"/></marker></defs><rect x="1" y="1" width="798" height="398" rx="14" fill="#eef2f7" stroke="#94a3b8" stroke-width="2"/><text x="400" y="32" font-size="19" text-anchor="middle" fill="#1e293b" font-weight="700">Longest Common Subsequence: 2-D DP table</text><rect x="150" y="90" width="52" height="40" rx="2" fill="#e2e8f0" stroke="#64748b" stroke-width="1"/><text x="176" y="115.3" font-size="15" text-anchor="middle" fill="#1e293b" font-family="ui-monospace,Menlo,Consolas,monospace">0</text><rect x="202" y="90" width="52" height="40" rx="2" fill="#e2e8f0" stroke="#64748b" stroke-width="1"/><text x="228" y="115.3" font-size="15" text-anchor="middle" fill="#1e293b" font-family="ui-monospace,Menlo,Consolas,monospace">0</text><rect x="254" y="90" width="52" height="40" rx="2" fill="#e2e8f0" stroke="#64748b" stroke-width="1"/><text x="280" y="115.3" font-size="15" text-anchor="middle" fill="#1e293b" font-family="ui-monospace,Menlo,Consolas,monospace">0</text><rect x="306" y="90" width="52" height="40" rx="2" fill="#e2e8f0" stroke="#64748b" stroke-width="1"/><text x="332" y="115.3" font-size="15" text-anchor="middle" fill="#1e293b" font-family="ui-monospace,Menlo,Consolas,monospace">0</text><rect x="150" y="130" width="52" height="40" rx="2" fill="#e2e8f0" stroke="#64748b" stroke-width="1"/><text x="176" y="155.3" font-size="15" text-anchor="middle" fill="#1e293b" font-family="ui-monospace,Menlo,Consolas,monospace">0</text><rect x="202" y="130" width="52" height="40" rx="2" fill="#d1fae5" stroke="#10b981" stroke-width="1"/><text x="228" y="155.3" font-size="15" text-anchor="middle" fill="#1e293b" font-family="ui-monospace,Menlo,Consolas,monospace">1</text><rect x="254" y="130" width="52" height="40" rx="2" fill="#e2e8f0" stroke="#64748b" stroke-width="1"/><text x="280" y="155.3" font-size="15" text-anchor="middle" fill="#1e293b" font-family="ui-monospace,Menlo,Consolas,monospace">1</text><rect x="306" y="130" width="52" height="40" rx="2" fill="#e2e8f0" stroke="#64748b" stroke-width="1"/><text x="332" y="155.3" font-size="15" text-anchor="middle" fill="#1e293b" font-family="ui-monospace,Menlo,Consolas,monospace">1</text><rect x="150" y="170" width="52" height="40" rx="2" fill="#e2e8f0" stroke="#64748b" stroke-width="1"/><text x="176" y="195.3" font-size="15" text-anchor="middle" fill="#1e293b" font-family="ui-monospace,Menlo,Consolas,monospace">0</text><rect x="202" y="170" width="52" height="40" rx="2" fill="#e2e8f0" stroke="#64748b" stroke-width="1"/><text x="228" y="195.3" font-size="15" text-anchor="middle" fill="#1e293b" font-family="ui-monospace,Menlo,Consolas,monospace">1</text><rect x="254" y="170" width="52" height="40" rx="2" fill="#e2e8f0" stroke="#64748b" stroke-width="1"/><text x="280" y="195.3" font-size="15" text-anchor="middle" fill="#1e293b" font-family="ui-monospace,Menlo,Consolas,monospace">1</text><rect x="306" y="170" width="52" height="40" rx="2" fill="#e2e8f0" stroke="#64748b" stroke-width="1"/><text x="332" y="195.3" font-size="15" text-anchor="middle" fill="#1e293b" font-family="ui-monospace,Menlo,Consolas,monospace">1</text><rect x="150" y="210" width="52" height="40" rx="2" fill="#e2e8f0" stroke="#64748b" stroke-width="1"/><text x="176" y="235.3" font-size="15" text-anchor="middle" fill="#1e293b" font-family="ui-monospace,Menlo,Consolas,monospace">0</text><rect x="202" y="210" width="52" height="40" rx="2" fill="#e2e8f0" stroke="#64748b" stroke-width="1"/><text x="228" y="235.3" font-size="15" text-anchor="middle" fill="#1e293b" font-family="ui-monospace,Menlo,Consolas,monospace">1</text><rect x="254" y="210" width="52" height="40" rx="2" fill="#d1fae5" stroke="#10b981" stroke-width="1"/><text x="280" y="235.3" font-size="15" text-anchor="middle" fill="#1e293b" font-family="ui-monospace,Menlo,Consolas,monospace">2</text><rect x="306" y="210" width="52" height="40" rx="2" fill="#e2e8f0" stroke="#64748b" stroke-width="1"/><text x="332" y="235.3" font-size="15" text-anchor="middle" fill="#1e293b" font-family="ui-monospace,Menlo,Consolas,monospace">2</text><rect x="150" y="250" width="52" height="40" rx="2" fill="#e2e8f0" stroke="#64748b" stroke-width="1"/><text x="176" y="275.3" font-size="15" text-anchor="middle" fill="#1e293b" font-family="ui-monospace,Menlo,Consolas,monospace">0</text><rect x="202" y="250" width="52" height="40" rx="2" fill="#e2e8f0" stroke="#64748b" stroke-width="1"/><text x="228" y="275.3" font-size="15" text-anchor="middle" fill="#1e293b" font-family="ui-monospace,Menlo,Consolas,monospace">1</text><rect x="254" y="250" width="52" height="40" rx="2" fill="#e2e8f0" stroke="#64748b" stroke-width="1"/><text x="280" y="275.3" font-size="15" text-anchor="middle" fill="#1e293b" font-family="ui-monospace,Menlo,Consolas,monospace">2</text><rect x="306" y="250" width="52" height="40" rx="2" fill="#e2e8f0" stroke="#64748b" stroke-width="1"/><text x="332" y="275.3" font-size="15" text-anchor="middle" fill="#1e293b" font-family="ui-monospace,Menlo,Consolas,monospace">2</text><rect x="150" y="290" width="52" height="40" rx="2" fill="#e2e8f0" stroke="#64748b" stroke-width="1"/><text x="176" y="315.3" font-size="15" text-anchor="middle" fill="#1e293b" font-family="ui-monospace,Menlo,Consolas,monospace">0</text><rect x="202" y="290" width="52" height="40" rx="2" fill="#e2e8f0" stroke="#64748b" stroke-width="1"/><text x="228" y="315.3" font-size="15" text-anchor="middle" fill="#1e293b" font-family="ui-monospace,Menlo,Consolas,monospace">1</text><rect x="254" y="290" width="52" height="40" rx="2" fill="#e2e8f0" stroke="#64748b" stroke-width="1"/><text x="280" y="315.3" font-size="15" text-anchor="middle" fill="#1e293b" font-family="ui-monospace,Menlo,Consolas,monospace">2</text><rect x="306" y="290" width="52" height="40" rx="2" fill="#d1fae5" stroke="#10b981" stroke-width="1"/><text x="332" y="315.3" font-size="15" text-anchor="middle" fill="#1e293b" font-family="ui-monospace,Menlo,Consolas,monospace">3</text><text x="142" y="115" font-size="12" text-anchor="end" fill="#475569" font-family="ui-monospace,Menlo,Consolas,monospace">&quot;&quot;</text><text x="142" y="155" font-size="12" text-anchor="end" fill="#475569" font-family="ui-monospace,Menlo,Consolas,monospace">a</text><text x="142" y="195" font-size="12" text-anchor="end" fill="#475569" font-family="ui-monospace,Menlo,Consolas,monospace">b</text><text x="142" y="235" font-size="12" text-anchor="end" fill="#475569" font-family="ui-monospace,Menlo,Consolas,monospace">c</text><text x="142" y="275" font-size="12" text-anchor="end" fill="#475569" font-family="ui-monospace,Menlo,Consolas,monospace">d</text><text x="142" y="315" font-size="12" text-anchor="end" fill="#475569" font-family="ui-monospace,Menlo,Consolas,monospace">e</text><text x="176" y="82" font-size="12" text-anchor="middle" fill="#475569" font-family="ui-monospace,Menlo,Consolas,monospace">&quot;&quot;</text><text x="228" y="82" font-size="12" text-anchor="middle" fill="#475569" font-family="ui-monospace,Menlo,Consolas,monospace">a</text><text x="280" y="82" font-size="12" text-anchor="middle" fill="#475569" font-family="ui-monospace,Menlo,Consolas,monospace">c</text><text x="332" y="82" font-size="12" text-anchor="middle" fill="#475569" font-family="ui-monospace,Menlo,Consolas,monospace">e</text><text x="560" y="110" font-size="13" text-anchor="middle" fill="#475569" font-weight="700">text1 = &quot;abcde&quot;, text2 = &quot;ace&quot;</text><text x="560" y="145" font-size="13" text-anchor="middle" fill="#475569">letters equal:</text><text x="560" y="165" font-size="12" text-anchor="middle" fill="#475569" font-family="ui-monospace,Menlo,Consolas,monospace">dp[i][j] = dp[i−1][j−1] + 1</text><text x="560" y="195" font-size="13" text-anchor="middle" fill="#475569">different:</text><text x="560" y="215" font-size="12" text-anchor="middle" fill="#475569" font-family="ui-monospace,Menlo,Consolas,monospace">max(dp[i−1][j], dp[i][j−1])</text><text x="560" y="260" font-size="14" text-anchor="middle" fill="#10b981" font-weight="700">answer dp[5][3] = 3 (&quot;ace&quot;)</text><text x="560" y="300" font-size="13" text-anchor="middle" fill="#6366f1" font-weight="700">O(m × n) time and space</text></svg>