<svg xmlns="http://www.w3.org/2000/svg" viewBox="0 0 800 400" width="800" height="400" font-family="system-ui,-apple-system,Segoe UI,Roboto,sans-serif" role="img" aria-label="Modal: portal, focus trap, scroll lock, inert background"><title>Modal: portal, focus trap, scroll lock, inert background</title><defs><marker id="a-slate" viewBox="0 0 10 10" refX="9" refY="5" markerWidth="7" markerHeight="7" orient="auto-start-reverse"><path d="M0 0L10 5L0 10z" fill="#64748b"/></marker><marker id="a-indigo" viewBox="0 0 10 10" refX="9" refY="5" markerWidth="7" markerHeight="7" orient="auto-start-reverse"><path d="M0 0L10 5L0 10z" fill="#6366f1"/></marker><marker id="a-green" viewBox="0 0 10 10" refX="9" refY="5" markerWidth="7" markerHeight="7" orient="auto-start-reverse"><path d="M0 0L10 5L0 10z" fill="#10b981"/></marker><marker id="a-amber" viewBox="0 0 10 10" refX="9" refY="5" markerWidth="7" markerHeight="7" orient="auto-start-reverse"><path d="M0 0L10 5L0 10z" fill="#f59e0b"/></marker><marker id="a-red" viewBox="0 0 10 10" refX="9" refY="5" markerWidth="7" markerHeight="7" orient="auto-start-reverse"><path d="M0 0L10 5L0 10z" fill="#ef4444"/></marker><marker id="a-sky" viewBox="0 0 10 10" refX="9" refY="5" markerWidth="7" markerHeight="7" orient="auto-start-reverse"><path d="M0 0L10 5L0 10z" fill="#0ea5e9"/></marker><marker id="a-violet" viewBox="0 0 10 10" refX="9" refY="5" markerWidth="7" markerHeight="7" orient="auto-start-reverse"><path d="M0 0L10 5L0 10z" fill="#8b5cf6"/></marker><marker id="a-pink" viewBox="0 0 10 10" refX="9" refY="5" markerWidth="7" markerHeight="7" orient="auto-start-reverse"><path d="M0 0L10 5L0 10z" fill="#ec4899"/></marker><marker id="a-teal" viewBox="0 0 10 10" refX="9" refY="5" markerWidth="7" markerHeight="7" orient="auto-start-reverse"><path d="M0 0L10 5L0 10z" fill="#14b8a6"/></marker></defs><rect x="1" y="1" width="798" height="398" rx="14" fill="#eef2f7" stroke="#94a3b8" stroke-width="2"/><text x="400" y="32" font-size="19" text-anchor="middle" fill="#1e293b" font-weight="700">Modal: portal, focus trap, scroll lock, inert background</text><line x1="140" y1="195" x2="187" y2="195" stroke="#64748b" stroke-width="2" marker-end="url(#a-slate)"/><line x1="310" y1="195" x2="435" y2="113" stroke="#64748b" stroke-width="2" marker-end="url(#a-slate)"/><line x1="310" y1="195" x2="435" y2="179" stroke="#64748b" stroke-width="2" marker-end="url(#a-slate)"/><line x1="310" y1="207.5" x2="357" y2="207.5" stroke="#64748b" stroke-width="2" marker-end="url(#a-slate)"/><line x1="310" y1="195" x2="435" y2="261" stroke="#64748b" stroke-width="2" marker-end="url(#a-slate)"/><line x1="510" y1="154" x2="567" y2="154" stroke="#64748b" stroke-width="2" marker-end="url(#a-slate)"/><rect x="20" y="170" width="120" height="50" rx="6" fill="#e0f2fe" stroke="#0ea5e9" stroke-width="1.5"/><text x="80" y="191.7" font-size="12" text-anchor="middle" fill="#1e293b" font-weight="700">Opener</text><text x="80" y="206.7" font-size="12" text-anchor="middle" fill="#1e293b" font-weight="700">button</text><rect x="190" y="170" width="120" height="50" rx="6" fill="#e0e7ff" stroke="#6366f1" stroke-width="1.5"/><text x="250" y="191.7" font-size="12" text-anchor="middle" fill="#1e293b" font-weight="700">Modal</text><text x="250" y="206.7" font-size="12" text-anchor="middle" fill="#1e293b" font-weight="700">open</text><rect x="360" y="66" width="150" height="44" rx="6" fill="#ede9fe" stroke="#8b5cf6" stroke-width="1.5"/><text x="435" y="84.7" font-size="12" text-anchor="middle" fill="#1e293b" font-weight="700">createPortal</text><text x="435" y="99.7" font-size="12" text-anchor="middle" fill="#1e293b" font-weight="700">→ body</text><rect x="360" y="132" width="150" height="44" rx="6" fill="#d1fae5" stroke="#10b981" stroke-width="1.5"/><text x="435" y="150.7" font-size="12" text-anchor="middle" fill="#1e293b" font-weight="700">focus trap</text><text x="435" y="165.7" font-size="12" text-anchor="middle" fill="#1e293b" font-weight="700">Tab wraps</text><rect x="360" y="198" width="150" height="44" rx="6" fill="#fef3c7" stroke="#f59e0b" stroke-width="1.5"/><text x="435" y="216.7" font-size="12" text-anchor="middle" fill="#1e293b" font-weight="700">scroll lock</text><text x="435" y="231.7" font-size="12" text-anchor="middle" fill="#1e293b" font-weight="700">(counter)</text><rect x="360" y="264" width="150" height="44" rx="6" fill="#e2e8f0" stroke="#64748b" stroke-width="1.5"/><text x="435" y="290.2" font-size="12" text-anchor="middle" fill="#1e293b" font-weight="700">#root inert</text><rect x="570" y="130" width="140" height="48" rx="6" fill="#fee2e2" stroke="#ef4444" stroke-width="1.5"/><text x="640" y="150.7" font-size="12" text-anchor="middle" fill="#1e293b" font-weight="700">modal stack</text><text x="640" y="165.7" font-size="12" text-anchor="middle" fill="#1e293b" font-weight="700">top handles Esc</text><text x="400" y="359" font-size="12" text-anchor="middle" fill="#6366f1" font-weight="700">role=&quot;dialog&quot; aria-modal=&quot;true&quot; aria-labelledby → title</text><text x="400" y="377" font-size="12" text-anchor="middle" fill="#475569">Close → unlock scroll, remove inert, focus returns to the opener</text></svg>