<svg xmlns="http://www.w3.org/2000/svg" viewBox="0 0 800 400" width="800" height="400" font-family="system-ui,-apple-system,Segoe UI,Roboto,sans-serif" role="img" aria-label="User management: RBAC, versioned updates, audit log"><title>User management: RBAC, versioned updates, audit log</title><defs><marker id="a-slate" viewBox="0 0 10 10" refX="9" refY="5" markerWidth="7" markerHeight="7" orient="auto-start-reverse"><path d="M0 0L10 5L0 10z" fill="#64748b"/></marker><marker id="a-indigo" viewBox="0 0 10 10" refX="9" refY="5" markerWidth="7" markerHeight="7" orient="auto-start-reverse"><path d="M0 0L10 5L0 10z" fill="#6366f1"/></marker><marker id="a-green" viewBox="0 0 10 10" refX="9" refY="5" markerWidth="7" markerHeight="7" orient="auto-start-reverse"><path d="M0 0L10 5L0 10z" fill="#10b981"/></marker><marker id="a-amber" viewBox="0 0 10 10" refX="9" refY="5" markerWidth="7" markerHeight="7" orient="auto-start-reverse"><path d="M0 0L10 5L0 10z" fill="#f59e0b"/></marker><marker id="a-red" viewBox="0 0 10 10" refX="9" refY="5" markerWidth="7" markerHeight="7" orient="auto-start-reverse"><path d="M0 0L10 5L0 10z" fill="#ef4444"/></marker><marker id="a-sky" viewBox="0 0 10 10" refX="9" refY="5" markerWidth="7" markerHeight="7" orient="auto-start-reverse"><path d="M0 0L10 5L0 10z" fill="#0ea5e9"/></marker><marker id="a-violet" viewBox="0 0 10 10" refX="9" refY="5" markerWidth="7" markerHeight="7" orient="auto-start-reverse"><path d="M0 0L10 5L0 10z" fill="#8b5cf6"/></marker><marker id="a-pink" viewBox="0 0 10 10" refX="9" refY="5" markerWidth="7" markerHeight="7" orient="auto-start-reverse"><path d="M0 0L10 5L0 10z" fill="#ec4899"/></marker><marker id="a-teal" viewBox="0 0 10 10" refX="9" refY="5" markerWidth="7" markerHeight="7" orient="auto-start-reverse"><path d="M0 0L10 5L0 10z" fill="#14b8a6"/></marker></defs><rect x="1" y="1" width="798" height="398" rx="14" fill="#eef2f7" stroke="#94a3b8" stroke-width="2"/><text x="400" y="32" font-size="19" text-anchor="middle" fill="#1e293b" font-weight="700">User management: RBAC, versioned updates, audit log</text><line x1="130" y1="195" x2="167" y2="195" stroke="#64748b" stroke-width="2" marker-end="url(#a-slate)"/><line x1="300" y1="195" x2="337" y2="195" stroke="#64748b" stroke-width="2" marker-end="url(#a-slate)"/><line x1="470" y1="195" x2="507" y2="195" stroke="#64748b" stroke-width="2" marker-end="url(#a-slate)"/><line x1="630" y1="195" x2="725" y2="157" stroke="#64748b" stroke-width="2" marker-end="url(#a-slate)"/><line x1="630" y1="195" x2="725" y2="227" stroke="#10b981" stroke-width="2" marker-end="url(#a-green)"/><line x1="405" y1="220" x2="405" y2="287" stroke="#64748b" stroke-width="2" marker-end="url(#a-slate)"/><line x1="577.5" y1="220" x2="577.5" y2="287" stroke="#ef4444" stroke-width="2" marker-end="url(#a-red)"/><rect x="20" y="170" width="110" height="50" rx="6" fill="#e0f2fe" stroke="#0ea5e9" stroke-width="1.5"/><text x="75" y="191.7" font-size="12" text-anchor="middle" fill="#1e293b" font-weight="700">React admin</text><text x="75" y="206.7" font-size="12" text-anchor="middle" fill="#1e293b" font-weight="700">can(perm)</text><rect x="170" y="170" width="130" height="50" rx="6" fill="#e0e7ff" stroke="#6366f1" stroke-width="1.5"/><text x="235" y="191.7" font-size="12" text-anchor="middle" fill="#1e293b" font-weight="700">requireAuth +</text><text x="235" y="206.7" font-size="12" text-anchor="middle" fill="#1e293b" font-weight="700">requirePermission</text><rect x="340" y="170" width="130" height="50" rx="6" fill="#ede9fe" stroke="#8b5cf6" stroke-width="1.5"/><text x="405" y="191.7" font-size="12" text-anchor="middle" fill="#1e293b" font-weight="700">UserService</text><text x="405" y="206.7" font-size="12" text-anchor="middle" fill="#1e293b" font-weight="700">hierarchy rules</text><rect x="510" y="170" width="120" height="50" rx="6" fill="#ccfbf1" stroke="#14b8a6" stroke-width="1.5"/><text x="570" y="199.2" font-size="12" text-anchor="middle" fill="#1e293b" font-weight="700">UserRepository</text><rect x="670" y="110" width="110" height="44" rx="6" fill="#e2e8f0" stroke="#64748b" stroke-width="1.5"/><text x="725" y="136.2" font-size="12" text-anchor="middle" fill="#1e293b" font-weight="700">memory</text><rect x="670" y="230" width="110" height="44" rx="6" fill="#d1fae5" stroke="#10b981" stroke-width="1.5"/><text x="725" y="256.2" font-size="12" text-anchor="middle" fill="#1e293b" font-weight="700">MongoDB</text><rect x="340" y="290" width="130" height="46" rx="6" fill="#fef3c7" stroke="#f59e0b" stroke-width="1.5"/><text x="405" y="317.2" font-size="12" text-anchor="middle" fill="#1e293b" font-weight="700">AuditRepository</text><rect x="510" y="290" width="150" height="46" rx="6" fill="#fee2e2" stroke="#ef4444" stroke-width="1.5"/><text x="585" y="309.7" font-size="12" text-anchor="middle" fill="#1e293b" font-weight="700">update where version</text><text x="585" y="324.7" font-size="12" text-anchor="middle" fill="#1e293b" font-weight="700">→ 409 if stale</text><text x="400" y="359" font-size="12" text-anchor="middle" fill="#6366f1" font-weight="700">403 = missing permission or higher role · 409 = someone else changed it first</text><text x="400" y="377" font-size="12" text-anchor="middle" fill="#475569">Soft delete + audit entry with from/to for every change</text></svg>