<svg xmlns="http://www.w3.org/2000/svg" viewBox="0 0 800 400" width="800" height="400" font-family="system-ui,-apple-system,Segoe UI,Roboto,sans-serif" role="img" aria-label="Words eat tea ate map to key aet, tan nat to ant, bat to abt"><title>Words eat tea ate map to key aet, tan nat to ant, bat to abt</title><defs><marker id="a-slate" viewBox="0 0 10 10" refX="9" refY="5" markerWidth="7" markerHeight="7" orient="auto-start-reverse"><path d="M0 0L10 5L0 10z" fill="#64748b"/></marker><marker id="a-indigo" viewBox="0 0 10 10" refX="9" refY="5" markerWidth="7" markerHeight="7" orient="auto-start-reverse"><path d="M0 0L10 5L0 10z" fill="#6366f1"/></marker><marker id="a-green" viewBox="0 0 10 10" refX="9" refY="5" markerWidth="7" markerHeight="7" orient="auto-start-reverse"><path d="M0 0L10 5L0 10z" fill="#10b981"/></marker><marker id="a-amber" viewBox="0 0 10 10" refX="9" refY="5" markerWidth="7" markerHeight="7" orient="auto-start-reverse"><path d="M0 0L10 5L0 10z" fill="#f59e0b"/></marker><marker id="a-red" viewBox="0 0 10 10" refX="9" refY="5" markerWidth="7" markerHeight="7" orient="auto-start-reverse"><path d="M0 0L10 5L0 10z" fill="#ef4444"/></marker><marker id="a-sky" viewBox="0 0 10 10" refX="9" refY="5" markerWidth="7" markerHeight="7" orient="auto-start-reverse"><path d="M0 0L10 5L0 10z" fill="#0ea5e9"/></marker><marker id="a-violet" viewBox="0 0 10 10" refX="9" refY="5" markerWidth="7" markerHeight="7" orient="auto-start-reverse"><path d="M0 0L10 5L0 10z" fill="#8b5cf6"/></marker><marker id="a-pink" viewBox="0 0 10 10" refX="9" refY="5" markerWidth="7" markerHeight="7" orient="auto-start-reverse"><path d="M0 0L10 5L0 10z" fill="#ec4899"/></marker><marker id="a-teal" viewBox="0 0 10 10" refX="9" refY="5" markerWidth="7" markerHeight="7" orient="auto-start-reverse"><path d="M0 0L10 5L0 10z" fill="#14b8a6"/></marker></defs><rect x="1" y="1" width="798" height="398" rx="14" fill="#eef2f7" stroke="#94a3b8" stroke-width="2"/><text x="400" y="32" font-size="19" text-anchor="middle" fill="#1e293b" font-weight="700">Group Anagrams: same sorted key → same bucket</text><text x="110" y="70" font-size="13" text-anchor="middle" fill="#475569" font-weight="700">word</text><text x="400" y="70" font-size="13" text-anchor="middle" fill="#475569" font-weight="700">key (sorted letters)</text><text x="670" y="70" font-size="13" text-anchor="middle" fill="#475569" font-weight="700">group</text><rect x="60" y="85" width="100" height="34" rx="6" fill="#e0e7ff" stroke="#6366f1" stroke-width="1.5"/><text x="110" y="106.9" font-size="14" text-anchor="middle" fill="#1e293b" font-weight="700" font-family="ui-monospace,Menlo,Consolas,monospace">eat</text><line x1="160" y1="102" x2="345" y2="127" stroke="#6366f1" stroke-width="2" marker-end="url(#a-indigo)"/><rect x="60" y="133" width="100" height="34" rx="6" fill="#e0e7ff" stroke="#6366f1" stroke-width="1.5"/><text x="110" y="154.9" font-size="14" text-anchor="middle" fill="#1e293b" font-weight="700" font-family="ui-monospace,Menlo,Consolas,monospace">tea</text><line x1="160" y1="150" x2="345" y2="127" stroke="#6366f1" stroke-width="2" marker-end="url(#a-indigo)"/><rect x="60" y="181" width="100" height="34" rx="6" fill="#d1fae5" stroke="#10b981" stroke-width="1.5"/><text x="110" y="202.9" font-size="14" text-anchor="middle" fill="#1e293b" font-weight="700" font-family="ui-monospace,Menlo,Consolas,monospace">tan</text><line x1="160" y1="198" x2="345" y2="227" stroke="#10b981" stroke-width="2" marker-end="url(#a-green)"/><rect x="60" y="229" width="100" height="34" rx="6" fill="#e0e7ff" stroke="#6366f1" stroke-width="1.5"/><text x="110" y="250.9" font-size="14" text-anchor="middle" fill="#1e293b" font-weight="700" font-family="ui-monospace,Menlo,Consolas,monospace">ate</text><line x1="160" y1="246" x2="345" y2="127" stroke="#6366f1" stroke-width="2" marker-end="url(#a-indigo)"/><rect x="60" y="277" width="100" height="34" rx="6" fill="#d1fae5" stroke="#10b981" stroke-width="1.5"/><text x="110" y="298.9" font-size="14" text-anchor="middle" fill="#1e293b" font-weight="700" font-family="ui-monospace,Menlo,Consolas,monospace">nat</text><line x1="160" y1="294" x2="345" y2="227" stroke="#10b981" stroke-width="2" marker-end="url(#a-green)"/><rect x="60" y="325" width="100" height="34" rx="6" fill="#fef3c7" stroke="#f59e0b" stroke-width="1.5"/><text x="110" y="346.9" font-size="14" text-anchor="middle" fill="#1e293b" font-weight="700" font-family="ui-monospace,Menlo,Consolas,monospace">bat</text><line x1="160" y1="342" x2="345" y2="317" stroke="#f59e0b" stroke-width="2" marker-end="url(#a-amber)"/><rect x="350" y="110" width="100" height="34" rx="6" fill="#e0e7ff" stroke="#6366f1" stroke-width="1.5"/><text x="400" y="131.9" font-size="14" text-anchor="middle" fill="#1e293b" font-weight="700" font-family="ui-monospace,Menlo,Consolas,monospace">aet</text><line x1="450" y1="127" x2="568" y2="127" stroke="#6366f1" stroke-width="2" marker-end="url(#a-indigo)"/><rect x="350" y="210" width="100" height="34" rx="6" fill="#d1fae5" stroke="#10b981" stroke-width="1.5"/><text x="400" y="231.9" font-size="14" text-anchor="middle" fill="#1e293b" font-weight="700" font-family="ui-monospace,Menlo,Consolas,monospace">ant</text><line x1="450" y1="227" x2="568" y2="227" stroke="#10b981" stroke-width="2" marker-end="url(#a-green)"/><rect x="350" y="300" width="100" height="34" rx="6" fill="#fef3c7" stroke="#f59e0b" stroke-width="1.5"/><text x="400" y="321.9" font-size="14" text-anchor="middle" fill="#1e293b" font-weight="700" font-family="ui-monospace,Menlo,Consolas,monospace">abt</text><line x1="450" y1="317" x2="568" y2="317" stroke="#f59e0b" stroke-width="2" marker-end="url(#a-amber)"/><rect x="570" y="102" width="200" height="50" rx="6" fill="#e0e7ff" stroke="#6366f1" stroke-width="1.5"/><text x="670" y="131.6" font-size="13" text-anchor="middle" fill="#1e293b" font-family="ui-monospace,Menlo,Consolas,monospace">[&quot;eat&quot;,&quot;tea&quot;,&quot;ate&quot;]</text><rect x="570" y="202" width="200" height="50" rx="6" fill="#d1fae5" stroke="#10b981" stroke-width="1.5"/><text x="670" y="231.6" font-size="13" text-anchor="middle" fill="#1e293b" font-family="ui-monospace,Menlo,Consolas,monospace">[&quot;tan&quot;,&quot;nat&quot;]</text><rect x="570" y="292" width="200" height="50" rx="6" fill="#fef3c7" stroke="#f59e0b" stroke-width="1.5"/><text x="670" y="321.6" font-size="13" text-anchor="middle" fill="#1e293b" font-family="ui-monospace,Menlo,Consolas,monospace">[&quot;bat&quot;]</text><text x="400" y="382" font-size="13" text-anchor="middle" fill="#475569">Map&lt;key, words[]&gt;: anagrams produce the SAME key, so they land in the same bucket.</text></svg>