<svg xmlns="http://www.w3.org/2000/svg" viewBox="0 0 800 400" width="800" height="400" font-family="system-ui,-apple-system,Segoe UI,Roboto,sans-serif" role="img" aria-label="Put nums1 in a set; scanning nums2 keeps 9 and 4"><title>Put nums1 in a set; scanning nums2 keeps 9 and 4</title><defs><marker id="a-slate" viewBox="0 0 10 10" refX="9" refY="5" markerWidth="7" markerHeight="7" orient="auto-start-reverse"><path d="M0 0L10 5L0 10z" fill="#64748b"/></marker><marker id="a-indigo" viewBox="0 0 10 10" refX="9" refY="5" markerWidth="7" markerHeight="7" orient="auto-start-reverse"><path d="M0 0L10 5L0 10z" fill="#6366f1"/></marker><marker id="a-green" viewBox="0 0 10 10" refX="9" refY="5" markerWidth="7" markerHeight="7" orient="auto-start-reverse"><path d="M0 0L10 5L0 10z" fill="#10b981"/></marker><marker id="a-amber" viewBox="0 0 10 10" refX="9" refY="5" markerWidth="7" markerHeight="7" orient="auto-start-reverse"><path d="M0 0L10 5L0 10z" fill="#f59e0b"/></marker><marker id="a-red" viewBox="0 0 10 10" refX="9" refY="5" markerWidth="7" markerHeight="7" orient="auto-start-reverse"><path d="M0 0L10 5L0 10z" fill="#ef4444"/></marker><marker id="a-sky" viewBox="0 0 10 10" refX="9" refY="5" markerWidth="7" markerHeight="7" orient="auto-start-reverse"><path d="M0 0L10 5L0 10z" fill="#0ea5e9"/></marker><marker id="a-violet" viewBox="0 0 10 10" refX="9" refY="5" markerWidth="7" markerHeight="7" orient="auto-start-reverse"><path d="M0 0L10 5L0 10z" fill="#8b5cf6"/></marker><marker id="a-pink" viewBox="0 0 10 10" refX="9" refY="5" markerWidth="7" markerHeight="7" orient="auto-start-reverse"><path d="M0 0L10 5L0 10z" fill="#ec4899"/></marker><marker id="a-teal" viewBox="0 0 10 10" refX="9" refY="5" markerWidth="7" markerHeight="7" orient="auto-start-reverse"><path d="M0 0L10 5L0 10z" fill="#14b8a6"/></marker></defs><rect x="1" y="1" width="798" height="398" rx="14" fill="#eef2f7" stroke="#94a3b8" stroke-width="2"/><text x="400" y="32" font-size="19" text-anchor="middle" fill="#1e293b" font-weight="700">Intersection of Two Arrays</text><text x="110" y="117" font-size="13" text-anchor="end" fill="#475569" font-weight="700">nums1</text><rect x="120" y="90" width="52" height="44" rx="4" fill="#e2e8f0" stroke="#64748b" stroke-width="1.5"/><text x="146" y="117.6" font-size="16" text-anchor="middle" fill="#1e293b" font-family="ui-monospace,Menlo,Consolas,monospace">4</text><text x="146" y="149" font-size="11" text-anchor="middle" fill="#475569" font-family="ui-monospace,Menlo,Consolas,monospace">0</text><rect x="172" y="90" width="52" height="44" rx="4" fill="#e2e8f0" stroke="#64748b" stroke-width="1.5"/><text x="198" y="117.6" font-size="16" text-anchor="middle" fill="#1e293b" font-family="ui-monospace,Menlo,Consolas,monospace">9</text><text x="198" y="149" font-size="11" text-anchor="middle" fill="#475569" font-family="ui-monospace,Menlo,Consolas,monospace">1</text><rect x="224" y="90" width="52" height="44" rx="4" fill="#e2e8f0" stroke="#64748b" stroke-width="1.5"/><text x="250" y="117.6" font-size="16" text-anchor="middle" fill="#1e293b" font-family="ui-monospace,Menlo,Consolas,monospace">5</text><text x="250" y="149" font-size="11" text-anchor="middle" fill="#475569" font-family="ui-monospace,Menlo,Consolas,monospace">2</text><text x="110" y="227" font-size="13" text-anchor="end" fill="#475569" font-weight="700">nums2</text><rect x="120" y="200" width="52" height="44" rx="4" fill="#d1fae5" stroke="#10b981" stroke-width="1.5"/><text x="146" y="227.6" font-size="16" text-anchor="middle" fill="#1e293b" font-family="ui-monospace,Menlo,Consolas,monospace">9</text><text x="146" y="259" font-size="11" text-anchor="middle" fill="#475569" font-family="ui-monospace,Menlo,Consolas,monospace">0</text><rect x="172" y="200" width="52" height="44" rx="4" fill="#d1fae5" stroke="#10b981" stroke-width="1.5"/><text x="198" y="227.6" font-size="16" text-anchor="middle" fill="#1e293b" font-family="ui-monospace,Menlo,Consolas,monospace">4</text><text x="198" y="259" font-size="11" text-anchor="middle" fill="#475569" font-family="ui-monospace,Menlo,Consolas,monospace">1</text><rect x="224" y="200" width="52" height="44" rx="4" fill="#e2e8f0" stroke="#64748b" stroke-width="1.5"/><text x="250" y="227.6" font-size="16" text-anchor="middle" fill="#1e293b" font-family="ui-monospace,Menlo,Consolas,monospace">9</text><text x="250" y="259" font-size="11" text-anchor="middle" fill="#475569" font-family="ui-monospace,Menlo,Consolas,monospace">2</text><rect x="276" y="200" width="52" height="44" rx="4" fill="#e2e8f0" stroke="#64748b" stroke-width="1.5"/><text x="302" y="227.6" font-size="16" text-anchor="middle" fill="#1e293b" font-family="ui-monospace,Menlo,Consolas,monospace">8</text><text x="302" y="259" font-size="11" text-anchor="middle" fill="#475569" font-family="ui-monospace,Menlo,Consolas,monospace">3</text><rect x="328" y="200" width="52" height="44" rx="4" fill="#e2e8f0" stroke="#64748b" stroke-width="1.5"/><text x="354" y="227.6" font-size="16" text-anchor="middle" fill="#1e293b" font-family="ui-monospace,Menlo,Consolas,monospace">4</text><text x="354" y="259" font-size="11" text-anchor="middle" fill="#475569" font-family="ui-monospace,Menlo,Consolas,monospace">4</text><rect x="470" y="80" width="250" height="70" rx="32" fill="#ede9fe" stroke="#8b5cf6" stroke-width="1.5"/><text x="595" y="74" font-size="13" text-anchor="middle" fill="#8b5cf6" font-weight="700">set1 = {4, 9, 5}</text><circle cx="530" cy="115" r="20" fill="#ede9fe" stroke="#8b5cf6" stroke-width="2"/><text x="530" y="120" font-size="15" text-anchor="middle" fill="#1e293b" font-weight="700">4</text><circle cx="595" cy="115" r="20" fill="#ede9fe" stroke="#8b5cf6" stroke-width="2"/><text x="595" y="120" font-size="15" text-anchor="middle" fill="#1e293b" font-weight="700">9</text><circle cx="660" cy="115" r="20" fill="#ede9fe" stroke="#8b5cf6" stroke-width="2"/><text x="660" y="120" font-size="15" text-anchor="middle" fill="#1e293b" font-weight="700">5</text><rect x="490" y="210" width="210" height="40" rx="6" fill="#d1fae5" stroke="#10b981" stroke-width="1.5"/><text x="595" y="234.9" font-size="14" text-anchor="middle" fill="#1e293b" font-weight="700" font-family="ui-monospace,Menlo,Consolas,monospace">result = {9, 4}</text><line x1="390" y1="222" x2="486" y2="230" stroke="#10b981" stroke-width="2" marker-end="url(#a-green)"/><text x="438" y="220" font-size="12" text-anchor="middle" fill="#475569">in set1? keep</text><text x="400" y="330" font-size="13" text-anchor="middle" fill="#475569">Unique version: Set of the smaller array + one scan of the other → O(n + m).</text><text x="400" y="354" font-size="13" text-anchor="middle" fill="#475569">Repeats allowed (II): use a count Map instead of a Set and decrement as you match.</text></svg>