<svg xmlns="http://www.w3.org/2000/svg" viewBox="0 0 800 400" width="800" height="400" font-family="system-ui,-apple-system,Segoe UI,Roboto,sans-serif" role="img" aria-label="Sliding window over abcabcbb; repeated b moves left past its last index"><title>Sliding window over abcabcbb; repeated b moves left past its last index</title><defs><marker id="a-slate" viewBox="0 0 10 10" refX="9" refY="5" markerWidth="7" markerHeight="7" orient="auto-start-reverse"><path d="M0 0L10 5L0 10z" fill="#64748b"/></marker><marker id="a-indigo" viewBox="0 0 10 10" refX="9" refY="5" markerWidth="7" markerHeight="7" orient="auto-start-reverse"><path d="M0 0L10 5L0 10z" fill="#6366f1"/></marker><marker id="a-green" viewBox="0 0 10 10" refX="9" refY="5" markerWidth="7" markerHeight="7" orient="auto-start-reverse"><path d="M0 0L10 5L0 10z" fill="#10b981"/></marker><marker id="a-amber" viewBox="0 0 10 10" refX="9" refY="5" markerWidth="7" markerHeight="7" orient="auto-start-reverse"><path d="M0 0L10 5L0 10z" fill="#f59e0b"/></marker><marker id="a-red" viewBox="0 0 10 10" refX="9" refY="5" markerWidth="7" markerHeight="7" orient="auto-start-reverse"><path d="M0 0L10 5L0 10z" fill="#ef4444"/></marker><marker id="a-sky" viewBox="0 0 10 10" refX="9" refY="5" markerWidth="7" markerHeight="7" orient="auto-start-reverse"><path d="M0 0L10 5L0 10z" fill="#0ea5e9"/></marker><marker id="a-violet" viewBox="0 0 10 10" refX="9" refY="5" markerWidth="7" markerHeight="7" orient="auto-start-reverse"><path d="M0 0L10 5L0 10z" fill="#8b5cf6"/></marker><marker id="a-pink" viewBox="0 0 10 10" refX="9" refY="5" markerWidth="7" markerHeight="7" orient="auto-start-reverse"><path d="M0 0L10 5L0 10z" fill="#ec4899"/></marker><marker id="a-teal" viewBox="0 0 10 10" refX="9" refY="5" markerWidth="7" markerHeight="7" orient="auto-start-reverse"><path d="M0 0L10 5L0 10z" fill="#14b8a6"/></marker></defs><rect x="1" y="1" width="798" height="398" rx="14" fill="#eef2f7" stroke="#94a3b8" stroke-width="2"/><text x="400" y="32" font-size="19" text-anchor="middle" fill="#1e293b" font-weight="700">Longest Substring Without Repeating Characters</text><rect x="110" y="100" width="52" height="44" rx="4" fill="#e2e8f0" stroke="#64748b" stroke-width="1.5"/><text x="136" y="127.6" font-size="16" text-anchor="middle" fill="#1e293b" font-family="ui-monospace,Menlo,Consolas,monospace">a</text><text x="136" y="159" font-size="11" text-anchor="middle" fill="#475569" font-family="ui-monospace,Menlo,Consolas,monospace">0</text><rect x="162" y="100" width="52" height="44" rx="4" fill="#d1fae5" stroke="#10b981" stroke-width="1.5"/><text x="188" y="127.6" font-size="16" text-anchor="middle" fill="#1e293b" font-family="ui-monospace,Menlo,Consolas,monospace">b</text><text x="188" y="159" font-size="11" text-anchor="middle" fill="#475569" font-family="ui-monospace,Menlo,Consolas,monospace">1</text><rect x="214" y="100" width="52" height="44" rx="4" fill="#d1fae5" stroke="#10b981" stroke-width="1.5"/><text x="240" y="127.6" font-size="16" text-anchor="middle" fill="#1e293b" font-family="ui-monospace,Menlo,Consolas,monospace">c</text><text x="240" y="159" font-size="11" text-anchor="middle" fill="#475569" font-family="ui-monospace,Menlo,Consolas,monospace">2</text><rect x="266" y="100" width="52" height="44" rx="4" fill="#d1fae5" stroke="#10b981" stroke-width="1.5"/><text x="292" y="127.6" font-size="16" text-anchor="middle" fill="#1e293b" font-family="ui-monospace,Menlo,Consolas,monospace">a</text><text x="292" y="159" font-size="11" text-anchor="middle" fill="#475569" font-family="ui-monospace,Menlo,Consolas,monospace">3</text><rect x="318" y="100" width="52" height="44" rx="4" fill="#fef3c7" stroke="#f59e0b" stroke-width="1.5"/><text x="344" y="127.6" font-size="16" text-anchor="middle" fill="#1e293b" font-family="ui-monospace,Menlo,Consolas,monospace">b</text><text x="344" y="159" font-size="11" text-anchor="middle" fill="#475569" font-family="ui-monospace,Menlo,Consolas,monospace">4</text><rect x="370" y="100" width="52" height="44" rx="4" fill="#e2e8f0" stroke="#64748b" stroke-width="1.5"/><text x="396" y="127.6" font-size="16" text-anchor="middle" fill="#1e293b" font-family="ui-monospace,Menlo,Consolas,monospace">c</text><text x="396" y="159" font-size="11" text-anchor="middle" fill="#475569" font-family="ui-monospace,Menlo,Consolas,monospace">5</text><rect x="422" y="100" width="52" height="44" rx="4" fill="#e2e8f0" stroke="#64748b" stroke-width="1.5"/><text x="448" y="127.6" font-size="16" text-anchor="middle" fill="#1e293b" font-family="ui-monospace,Menlo,Consolas,monospace">b</text><text x="448" y="159" font-size="11" text-anchor="middle" fill="#475569" font-family="ui-monospace,Menlo,Consolas,monospace">6</text><rect x="474" y="100" width="52" height="44" rx="4" fill="#e2e8f0" stroke="#64748b" stroke-width="1.5"/><text x="500" y="127.6" font-size="16" text-anchor="middle" fill="#1e293b" font-family="ui-monospace,Menlo,Consolas,monospace">b</text><text x="500" y="159" font-size="11" text-anchor="middle" fill="#475569" font-family="ui-monospace,Menlo,Consolas,monospace">7</text><rect x="158" y="94" width="164" height="56" rx="8" fill="none" stroke="#10b981" stroke-width="3"/><text x="240" y="88" font-size="13" text-anchor="middle" fill="#10b981" font-weight="700">window &quot;bca&quot; (no repeats)</text><line x1="188" y1="190" x2="188" y2="166" stroke="#6366f1" stroke-width="2" marker-end="url(#a-indigo)"/><text x="188" y="206" font-size="13" text-anchor="middle" fill="#6366f1" font-weight="700">left</text><line x1="344" y1="190" x2="344" y2="166" stroke="#f59e0b" stroke-width="2" marker-end="url(#a-amber)"/><text x="344" y="206" font-size="13" text-anchor="middle" fill="#f59e0b" font-weight="700">right</text><text x="630" y="92" font-size="13" text-anchor="middle" fill="#8b5cf6" font-weight="700">last seen at</text><rect x="560" y="100" width="70" height="28" rx="6" fill="#ede9fe" stroke="#8b5cf6" stroke-width="1.5"/><text x="595" y="118.2" font-size="12" text-anchor="middle" fill="#1e293b" font-weight="700">char</text><rect x="630" y="100" width="70" height="28" rx="6" fill="#ede9fe" stroke="#8b5cf6" stroke-width="1.5"/><text x="665" y="118.2" font-size="12" text-anchor="middle" fill="#1e293b" font-weight="700">last idx</text><rect x="560" y="128" width="70" height="28" rx="2" fill="#f8fafc" stroke="#64748b" stroke-width="1.5"/><text x="595" y="146.6" font-size="13" text-anchor="middle" fill="#1e293b" font-family="ui-monospace,Menlo,Consolas,monospace">a</text><rect x="630" y="128" width="70" height="28" rx="2" fill="#f8fafc" stroke="#64748b" stroke-width="1.5"/><text x="665" y="146.6" font-size="13" text-anchor="middle" fill="#1e293b" font-family="ui-monospace,Menlo,Consolas,monospace">3</text><rect x="560" y="156" width="70" height="28" rx="2" fill="#fef3c7" stroke="#f59e0b" stroke-width="1.5"/><text x="595" y="174.6" font-size="13" text-anchor="middle" fill="#1e293b" font-family="ui-monospace,Menlo,Consolas,monospace">b</text><rect x="630" y="156" width="70" height="28" rx="2" fill="#fef3c7" stroke="#f59e0b" stroke-width="1.5"/><text x="665" y="174.6" font-size="13" text-anchor="middle" fill="#1e293b" font-family="ui-monospace,Menlo,Consolas,monospace">1</text><rect x="560" y="184" width="70" height="28" rx="2" fill="#f8fafc" stroke="#64748b" stroke-width="1.5"/><text x="595" y="202.6" font-size="13" text-anchor="middle" fill="#1e293b" font-family="ui-monospace,Menlo,Consolas,monospace">c</text><rect x="630" y="184" width="70" height="28" rx="2" fill="#f8fafc" stroke="#64748b" stroke-width="1.5"/><text x="665" y="202.6" font-size="13" text-anchor="middle" fill="#1e293b" font-family="ui-monospace,Menlo,Consolas,monospace">2</text><text x="400" y="300" font-size="13" text-anchor="middle" fill="#475569">right = 4 sees &quot;b&quot; again; its last index 1 is inside the window → left jumps to 1 + 1 = 2.</text><text x="400" y="324" font-size="13" text-anchor="middle" fill="#475569">Window never contains a repeat; best = max(best, right − left + 1) = 3.</text><text x="400" y="358" font-size="14" text-anchor="middle" fill="#6366f1" font-weight="700">Each pointer only moves forward → O(n).</text></svg>