<svg xmlns="http://www.w3.org/2000/svg" viewBox="0 0 800 400" width="800" height="400" font-family="system-ui,-apple-system,Segoe UI,Roboto,sans-serif" role="img" aria-label="Production architecture"><title>Production architecture</title><defs><marker id="a-slate" viewBox="0 0 10 10" refX="9" refY="5" markerWidth="7" markerHeight="7" orient="auto-start-reverse"><path d="M0 0L10 5L0 10z" fill="#64748b"/></marker><marker id="a-indigo" viewBox="0 0 10 10" refX="9" refY="5" markerWidth="7" markerHeight="7" orient="auto-start-reverse"><path d="M0 0L10 5L0 10z" fill="#6366f1"/></marker><marker id="a-green" viewBox="0 0 10 10" refX="9" refY="5" markerWidth="7" markerHeight="7" orient="auto-start-reverse"><path d="M0 0L10 5L0 10z" fill="#10b981"/></marker><marker id="a-amber" viewBox="0 0 10 10" refX="9" refY="5" markerWidth="7" markerHeight="7" orient="auto-start-reverse"><path d="M0 0L10 5L0 10z" fill="#f59e0b"/></marker><marker id="a-red" viewBox="0 0 10 10" refX="9" refY="5" markerWidth="7" markerHeight="7" orient="auto-start-reverse"><path d="M0 0L10 5L0 10z" fill="#ef4444"/></marker><marker id="a-sky" viewBox="0 0 10 10" refX="9" refY="5" markerWidth="7" markerHeight="7" orient="auto-start-reverse"><path d="M0 0L10 5L0 10z" fill="#0ea5e9"/></marker><marker id="a-violet" viewBox="0 0 10 10" refX="9" refY="5" markerWidth="7" markerHeight="7" orient="auto-start-reverse"><path d="M0 0L10 5L0 10z" fill="#8b5cf6"/></marker><marker id="a-pink" viewBox="0 0 10 10" refX="9" refY="5" markerWidth="7" markerHeight="7" orient="auto-start-reverse"><path d="M0 0L10 5L0 10z" fill="#ec4899"/></marker><marker id="a-teal" viewBox="0 0 10 10" refX="9" refY="5" markerWidth="7" markerHeight="7" orient="auto-start-reverse"><path d="M0 0L10 5L0 10z" fill="#14b8a6"/></marker></defs><rect x="1" y="1" width="798" height="398" rx="14" fill="#eef2f7" stroke="#94a3b8" stroke-width="2"/><text x="400" y="32" font-size="19" text-anchor="middle" fill="#1e293b" font-weight="700">A restaurant chain: printed menus, identical kitchens, a managed pantry, alarms</text><rect x="30" y="75" width="150" height="60" rx="6" fill="#e0f2fe" stroke="#0ea5e9" stroke-width="1.5"/><text x="105" y="109.2" font-size="12" text-anchor="middle" fill="#1e293b" font-weight="700">CloudFront + WAF</text><rect x="30" y="165" width="150" height="50" rx="6" fill="#e2e8f0" stroke="#64748b" stroke-width="1.5"/><text x="105" y="194.2" font-size="12" text-anchor="middle" fill="#1e293b">S3: React build</text><rect x="230" y="75" width="130" height="60" rx="6" fill="#e0e7ff" stroke="#6366f1" stroke-width="1.5"/><text x="295" y="109.2" font-size="12" text-anchor="middle" fill="#1e293b" font-weight="700">ALB (HTTPS)</text><rect x="410" y="60" width="150" height="44" rx="6" fill="#d1fae5" stroke="#10b981" stroke-width="1.5"/><text x="485" y="86.2" font-size="12" text-anchor="middle" fill="#1e293b">API container AZ-a</text><rect x="410" y="115" width="150" height="44" rx="6" fill="#d1fae5" stroke="#10b981" stroke-width="1.5"/><text x="485" y="141.2" font-size="12" text-anchor="middle" fill="#1e293b">API container AZ-b</text><rect x="610" y="55" width="160" height="40" rx="6" fill="#ede9fe" stroke="#8b5cf6" stroke-width="1.5"/><text x="690" y="79.2" font-size="12" text-anchor="middle" fill="#1e293b">MongoDB Atlas</text><rect x="610" y="105" width="160" height="40" rx="6" fill="#fee2e2" stroke="#ef4444" stroke-width="1.5"/><text x="690" y="129.2" font-size="12" text-anchor="middle" fill="#1e293b">Redis</text><rect x="610" y="155" width="160" height="40" rx="6" fill="#e2e8f0" stroke="#64748b" stroke-width="1.5"/><text x="690" y="179.2" font-size="12" text-anchor="middle" fill="#1e293b">S3 uploads</text><rect x="410" y="185" width="150" height="44" rx="6" fill="#fef3c7" stroke="#f59e0b" stroke-width="1.5"/><text x="485" y="211.2" font-size="12" text-anchor="middle" fill="#1e293b">SQS → worker</text><line x1="105" y1="135" x2="105" y2="161" stroke="#64748b" stroke-width="2" marker-end="url(#a-slate)"/><line x1="180" y1="105" x2="226" y2="105" stroke="#64748b" stroke-width="2" marker-end="url(#a-slate)"/><line x1="360" y1="95" x2="406" y2="82" stroke="#64748b" stroke-width="2" marker-end="url(#a-slate)"/><line x1="360" y1="115" x2="406" y2="137" stroke="#64748b" stroke-width="2" marker-end="url(#a-slate)"/><line x1="560" y1="82" x2="606" y2="75" stroke="#64748b" stroke-width="2" marker-end="url(#a-slate)"/><line x1="560" y1="125" x2="606" y2="125" stroke="#64748b" stroke-width="2" marker-end="url(#a-slate)"/><line x1="560" y1="137" x2="606" y2="172" stroke="#64748b" stroke-width="2" marker-end="url(#a-slate)"/><line x1="485" y1="159" x2="485" y2="181" stroke="#64748b" stroke-width="2" marker-end="url(#a-slate)"/><rect x="30" y="255" width="740" height="50" rx="6" fill="#e0e7ff" stroke="#6366f1" stroke-width="1.5"/><text x="400" y="284.2" font-size="12" text-anchor="middle" fill="#1e293b">Secrets Manager · CI/CD (test, scan, rolling deploy) · logs + request ids · metrics · alarms on 5xx and p95</text><text x="400" y="368" font-size="12" text-anchor="middle" fill="#6366f1" font-weight="700">Start as a monolith API + managed services; scale out before splitting</text></svg>